<svg id="ef27DFTzZAO1" xmlns="http://www.w3.org/2000/svg" xmlns:xlink="http://www.w3.org/1999/xlink" viewBox="0 0 1256 352" shape-rendering="geometricPrecision" text-rendering="geometricPrecision">
<ellipse rx="391.438" ry="391.297" transform="translate(624.825 613.373)" fill="#fff"/><ellipse rx="391.438" ry="391.297" transform="translate(624.825 613.373)" fill="#d2d7dc" fill-opacity="0.25"/><ellipse rx="690.107" ry="689.859" transform="translate(957.893 905.221)" fill="#fff"/><ellipse rx="690.107" ry="689.859" transform="translate(957.893 905.221)" fill="#d2d7dc" fill-opacity="0.55"/><ellipse rx="775.044" ry="774.764" transform="translate(775.044 1065.24)" fill="#d2d7dc"/><path d="M610,183.108l.971-2.108c16.889,7.573,32.147,7.573,45.889.042l1.14,2.024c-14.425,7.905-30.463,7.905-48,.042Z" fill="#d2d7dc"/><path d="M562,183.108l.971-2.108c16.889,7.573,32.147,7.573,45.889.042l1.14,2.024c-14.425,7.905-30.463,7.905-48,.042Z" fill="#d2d7dc"/><path d="M611.444,222h-2.444v-44.112c0-3.252,2.736-5.888,6.111-5.888h4.889v2.355h-4.889c-2.025,0-3.667,1.582-3.667,3.533v44.112Z" fill="#d2d7dc"/><path d="M658.444,223h-2.444v-44.112c0-3.252,2.736-5.888,6.111-5.888h4.889v2.355h-4.889c-2.025,0-3.667,1.582-3.667,3.533v44.112Z" fill="#d2d7dc"/><g id="ef27DFTzZAO11_to" transform="translate(1474,32.831711)"><g transform="translate(-769,-35.168291)"><path d="M594.612,22.6424c0,.2745-.018.5454-.053.8059h-43.175c-.248-.6704-.384-1.3957-.384-2.1572c0-3.0075,2.152-5.5162,5.008-6.0791-.037-.3329-.05-.6751-.05-1.022c0-6.54863,5.329-11.85342,11.897-11.85342c4.05,0,7.62,2.01236,9.768,5.08872.763-.22541,1.573-.34688,2.409-.34688c4.678,0,8.47,3.77828,8.47,8.43958c0,.3153-.019.6213-.055.9273c3.407.028,6.165,2.7926,6.165,6.1971Z" clip-rule="evenodd" fill="#e2e6e8" fill-rule="evenodd"/><path d="M674.73,66.9259c0,.3658-.025.727-.073,1.0741h-58.327c-.335-.8935-.519-1.8602-.519-2.8751c0-4.0084,2.907-7.3521,6.765-8.1024-.049-.4436-.066-.8997-.066-1.362c0-8.7282,7.199-15.7984,16.071-15.7984c5.472,0,10.295,2.6821,13.196,6.7823c1.031-.3005,2.126-.4624,3.255-.4624c6.32,0,11.443,5.0358,11.443,11.2484c0,.4203-.026.8281-.075,1.2359c4.604.0374,8.33,3.722,8.33,8.2596Z" clip-rule="evenodd" fill="#e2e6e8" fill-rule="evenodd"/><path d="M844.429,22.6424c0,.2745-.019.5454-.054.8059h-43.174c-.249-.6704-.385-1.3957-.385-2.1572c0-3.0075,2.153-5.5162,5.008-6.0791-.036-.3329-.049-.6751-.049-1.022c0-6.54863,5.329-11.85342,11.896-11.85342c4.05,0,7.621,2.01236,9.768,5.08872.763-.22541,1.573-.34688,2.409-.34688c4.678,0,8.47,3.77828,8.47,8.43958c0,.3153-.018.6213-.055.9273c3.408.028,6.166,2.7926,6.166,6.1971Z" clip-rule="evenodd" fill="#e2e6e8" fill-rule="evenodd"/><path d="M987,66.9259c0,.3658-.025.727-.073,1.0741h-58.327c-.335-.8935-.519-1.8602-.519-2.8751c0-4.0084,2.908-7.3521,6.765-8.1024-.049-.4436-.066-.8997-.066-1.362c0-8.7282,7.199-15.7984,16.071-15.7984c5.472,0,10.295,2.6821,13.196,6.7823c1.031-.3005,2.126-.4624,3.255-.4624c6.32,0,11.443,5.0358,11.443,11.2484c0,.4203-.026.8281-.075,1.2359c4.604.0374,8.33,3.722,8.33,8.2596Z" clip-rule="evenodd" fill="#e2e6e8" fill-rule="evenodd"/></g></g><path d="M942.947,200.241c-3.895,0-7.052-2.973-7.052-6.642v-19.543c0-3.668,3.157-6.642,7.052-6.642s7.053,2.974,7.053,6.642v19.543c0,3.669-3.158,6.642-7.053,6.642Z" clip-rule="evenodd" fill="#d2d7dc" fill-rule="evenodd"/><path d="M942.947,199.069v15.241" fill="none" stroke="#d2d7dc" stroke-width="2"/><path d="M919.439,199.069c-4.544,0-8.229-3.823-8.229-8.54v-25.126c0-4.717,3.685-8.541,8.229-8.541s8.228,3.824,8.228,8.541v25.126c0,4.717-3.684,8.54-8.228,8.54Z" clip-rule="evenodd" fill="#b4bbc3" fill-rule="evenodd"/><path d="M919.439,197.897v17.586" fill="none" stroke="#b4bbc3" stroke-width="2"/><path d="M892.424,197.455c-5.205,0-9.424-4.207-9.424-9.399v-27.656c0-5.191,4.219-9.4,9.424-9.4s9.425,4.209,9.425,9.4v27.656c0,5.192-4.22,9.399-9.425,9.399Z" clip-rule="evenodd" fill="#697887" fill-opacity="0.7" fill-rule="evenodd"/><path d="M892.424,196.724v21.213" opacity="0.704597" fill="none" stroke="#697887" stroke-width="2"/><rect width="30.4828" height="68.6333" rx="0" ry="0" transform="matrix(-1 0 0 1 774.826 222.366)" fill="#f4f5f6"/><path d="M742.115,290.916v-64.704c0-3.432,2.767-6.213,6.167-6.213h21.561c3.4,0,6.155,2.781,6.155,6.213v50.658c0,3.148-1.277,6-3.328,8.07-2.065,2.071-4.902,3.349-8.021,3.349-6.261,0-11.349-5.135-11.349-11.454v-9.313h-.022c-2.052-.545-3.577-2.426-3.577-4.663v-6.023h2.38v4.816h4.772v-4.816h2.391v6.023c0,2.237-1.536,4.118-3.587,4.663h-.012v9.313c0,5.017,4.045,9.088,9.004,9.088c4.971,0,9.004-4.071,9.004-9.088v-50.623c0-2.119-1.7-3.846-3.81-3.846h-21.561c-2.11,0-3.822,1.727-3.822,3.846v64.704h-2.345ZM765.96,233.67v9.217c0,1.197-.964,2.171-2.15,2.171h-9.134c-1.186,0-2.151-.974-2.151-2.171v-9.217c0-1.198.965-2.172,2.151-2.172h9.134c1.186,0,2.15.974,2.15,2.172Zm-15.78,0v9.217c0,2.501,2.018,4.538,4.496,4.538h9.134c2.478,0,4.495-2.037,4.495-4.538v-9.217c0-2.502-2.017-4.538-4.495-4.538h-9.134c-2.478,0-4.496,2.036-4.496,4.538Z" clip-rule="evenodd" fill="#19324b" fill-rule="evenodd"/></svg>
