<svg width="80" height="30" viewBox="0 0 80 30" fill="none" xmlns="http://www.w3.org/2000/svg">
<path fill-rule="evenodd" clip-rule="evenodd" d="M0 29.6296H80V0H0V29.6296ZM3.1205 26.3996H76.8801V3.2301H3.1205V26.3996ZM66.7141 22.5601H73.2313V7.0703H71.2651C67.1175 7.1019 63.219 8.7223 60.2885 11.6037C57.3196 14.5228 55.6859 18.4126 55.6859 22.5601H59.588C59.588 16.9535 63.8066 12.2507 69.3282 11.299V18.5207H66.7141V22.5601ZM58.3837 11.1088H52.9766V22.5601H49.0753V11.1088H44.1582V7.0703H58.3837V11.1088ZM35.9917 18.218C35.9917 14.311 39.0525 11.1395 42.7173 11.1088V7.0703C40.1765 7.0911 37.8112 8.0338 35.9917 9.6371V7.0703H32.0895V22.5601H35.9917V18.218ZM25.82 22.5602H29.7225V7.0704H25.82V22.5602ZM19.773 18.0269C22.7414 15.1077 24.3759 11.2179 24.3759 7.0703H20.473C20.473 12.6771 16.2553 17.3789 10.7328 18.3315V11.1098H13.3469V7.0703H6.8302V22.5602H8.7959C12.9438 22.5277 16.8423 20.9083 19.773 18.0269Z" fill="#212121"/>
</svg>
